<svg xmlns="http://www.w3.org/2000/svg" width="296" height="296" viewBox="0 0 296 296">
  <g id="Grupo_1284" data-name="Grupo 1284" transform="translate(-1456 -101)">
    <rect id="Rectángulo_539" data-name="Rectángulo 539" width="296" height="296" transform="translate(1456 101)" fill="#fff"/>
    <g id="layer1" transform="translate(-78.785 -1681.105)">
      <g id="g13" transform="translate(1551.785 1849.105)">
        <g id="XMLID_328_" transform="translate(0 0)">
          <rect id="rect19" width="70.815" height="127.241" transform="translate(95.543 17.31)" fill="#ff5f00"/>
          <path id="XMLID_330_" d="M2998.774,2320.433a81.144,81.144,0,0,1,30.8-63.621,80.931,80.931,0,1,0,0,127.241A80.809,80.809,0,0,1,2998.774,2320.433Z" transform="translate(-2898.734 -2239.502)" fill="#eb001b"/>
          <path id="path22" d="M3530.006,2320.433a80.845,80.845,0,0,1-130.838,63.621,81.11,81.11,0,0,0,0-127.241,80.845,80.845,0,0,1,130.838,63.621Z" transform="translate(-3268.104 -2239.502)" fill="#f79e1b"/>
        </g>
      </g>
    </g>
  </g>
</svg>
